<svg width="84" height="102" viewBox="0 0 84 102" fill="none" xmlns="http://www.w3.org/2000/svg">
<g clip-path="url(#clip0_50_117)">
<path d="M0 1.82661C4.234 -0.946891 8.46803 -0.071051 12.264 1.24271C17.52 3.14037 22.63 5.62192 27.302 8.5414C48.472 22.5549 61.174 42.5533 66.43 67.2228C67.744 73.4997 68.182 80.0685 69.058 87.2212C74.898 83.8638 77.964 77.295 83.804 73.4997C84.534 76.4192 83.074 78.3168 81.906 79.9225C77.088 86.4913 72.124 93.0602 67.014 99.483C64.532 102.548 62.634 102.84 60.006 100.213C54.458 94.8119 51.1 88.243 50.078 80.6524C50.078 80.3605 50.516 79.9225 51.1 79.1927C57.378 80.7984 55.918 88.8269 61.32 91.7464C63.656 81.6742 61.904 72.04 59.276 62.6976C56.502 52.9174 52.852 43.5751 47.012 35.2546C41.318 27.0801 34.164 20.5112 26.28 14.3803C18.542 8.10348 9.78199 4.16219 0 1.82661Z" fill="black"/>
</g>
<defs>
<clipPath id="clip0_50_117">
<rect width="84" height="102" fill="white"/>
</clipPath>
</defs>
</svg>
